<svg version="1.1" id="Layer_1" xmlns="http://www.w3.org/2000/svg" xmlns:xlink="http://www.w3.org/1999/xlink" x="0px" y="0px"
	 width="266px" height="22px" viewBox="0 0 266 22" enable-background="new 0 0 266 22" xml:space="preserve">
<g>
	<polygon points="0.61,6.499 0.61,0.911 18.525,0.911 18.525,6.499 15.699,6.499 15.699,2.841 11.129,2.841 11.129,19.16 
		14.088,19.16 14.088,21.088 5.046,21.088 5.046,19.16 8.006,19.16 8.006,2.841 3.437,2.841 3.437,6.499 	"/>
	<path d="M46.564,10.998c0,5.843-5.425,10.538-12.458,10.538c-7.037,0-12.462-4.695-12.462-10.538
		c0-5.838,5.425-10.535,12.462-10.535C41.139,0.463,46.564,5.16,46.564,10.998 M24.766,10.998c0,5.339,4.967,8.133,9.34,8.133
		c4.369,0,9.334-2.794,9.334-8.133c0-5.334-4.965-8.128-9.334-8.128C29.733,2.87,24.766,5.664,24.766,10.998"/>
	<path d="M74.764,10.998c0,5.843-5.425,10.538-12.46,10.538c-7.035,0-12.462-4.695-12.462-10.538
		c0-5.838,5.427-10.535,12.462-10.535C69.339,0.463,74.764,5.16,74.764,10.998 M52.967,10.998c0,5.339,4.965,8.133,9.337,8.133
		s9.337-2.794,9.337-8.133c0-5.334-4.965-8.128-9.337-8.128S52.967,5.664,52.967,10.998"/>
	<polygon points="77.816,2.841 77.816,0.911 86.824,0.911 86.824,2.841 83.765,2.841 83.765,19.16 91.13,19.16 91.13,15.165 
		93.955,15.165 93.955,21.088 77.75,21.088 77.75,19.16 80.642,19.16 80.642,2.841 	"/>
	<path d="M98.654,14.243c0.592,2.904,3.121,5.001,6.639,5.001c2.465,0,5.031-1.201,5.031-3.494c0-5.644-14.269-2.265-14.269-9.919
		c0-3.662,3.355-5.368,7.299-5.368c2.498,0,4.176,0.671,5.95,2.152V0.911h2.565v5.926h-2.631c-0.46-2.348-2.827-4.079-5.621-4.079
		c-3.024,0-4.602,1.366-4.602,2.99c0,4.835,14.267,1.761,14.267,9.835c0,3.493-3.385,5.954-7.364,5.954
		c-2.991,0-4.832-0.532-7.233-2.126v1.677h-2.563v-6.844H98.654z"/>
	<path d="M127.348,9.305v1.708h-2.638v6.656c0,1.632,0.271,1.739,1.32,1.739c0.42,0,0.869-0.051,1.288-0.079v1.759
		c-0.719,0.177-1.469,0.254-2.219,0.254c-2.397,0-2.97-0.558-2.97-3.085v-7.244h-2.367V9.305h2.367V5.226h2.581v4.079H127.348z"/>
	<path d="M137.276,9.05c4.678,0,7.408,2.806,7.408,6.149c0,3.338-2.73,6.144-7.408,6.144c-4.68,0-7.407-2.806-7.407-6.144
		C129.869,11.856,132.596,9.05,137.276,9.05 M132.447,15.199c0,2.624,1.919,4.411,4.829,4.411c2.911,0,4.829-1.787,4.829-4.411
		c0-2.628-1.918-4.413-4.829-4.413C134.366,10.786,132.447,12.571,132.447,15.199"/>
	<polygon points="150.35,2.841 150.35,0.911 159.359,0.911 159.359,2.841 156.299,2.841 156.299,19.16 163.665,19.16 
		163.665,15.165 166.493,15.165 166.493,21.088 150.285,21.088 150.285,19.16 153.179,19.16 153.179,2.841 	"/>
	<polygon points="169.48,21.088 169.48,19.16 172.339,19.16 172.339,2.841 169.544,2.841 169.544,0.911 178.388,0.911 
		178.388,2.841 175.462,2.841 175.462,19.16 178.321,19.16 178.321,21.088 	"/>
	<polygon points="181.507,0.911 189.66,0.911 189.66,2.841 187.159,2.841 191.828,16.198 191.893,16.198 196.895,2.841 
		194.295,2.841 194.295,0.911 202.183,0.911 202.183,2.841 199.883,2.841 193.01,21.088 190.581,21.088 183.908,2.841 
		181.507,2.841 	"/>
	<polygon points="205.14,21.088 205.14,19.16 207.967,19.16 207.967,2.841 205.14,2.841 205.14,0.911 223.484,0.911 223.484,6.307 
		220.656,6.307 220.656,2.841 211.087,2.841 211.087,9.268 219.146,9.268 219.146,11.448 211.087,11.448 211.087,19.16 
		220.656,19.16 220.656,15.079 223.484,15.079 223.484,21.088 	"/>
	<path d="M225.351,19.16h2.827V2.841h-2.759v-1.93h8.873c5.229,0,7.63,1.621,7.63,5.001c0,2.489-1.81,3.832-3.879,4.279v0.056
		c1.545,0.281,4.73,1.343,4.73,5.253c0,4.192-3.645,5.588-8.578,5.588h-8.844V19.16z M231.301,9.433h3.259
		c2.135,0,4.238-1.369,4.238-3.127c0-2.209-1.711-3.465-4.405-3.465h-3.092V9.433z M231.301,19.16h2.534
		c4.242,0,5.818-1.313,5.818-3.939c0-2.739-1.908-3.859-5.854-3.859h-2.498V19.16z"/>
	<polygon points="244.777,0.911 253.13,0.911 253.13,2.841 250.397,2.841 255.234,9.52 255.298,9.52 259.963,2.841 257.533,2.841 
		257.533,0.911 265.39,0.911 265.39,2.841 263.022,2.841 256.647,11.84 256.647,19.16 259.44,19.16 259.44,21.088 250.694,21.088 
		250.694,19.16 253.521,19.16 253.521,12.036 247.21,2.841 244.777,2.841 	"/>
</g>
</svg>
